<svg width="41" height="25" viewBox="0 0 41 25" fill="none" xmlns="http://www.w3.org/2000/svg">
<path d="M28.8077 0H12.8077C6.18019 0 0.807693 5.54036 0.807693 12.5C0.807693 19.4596 6.18019 25 12.8077 25H28.8077C35.4327 25 40.8077 19.4036 40.8077 12.5C40.8077 5.59635 35.4327 0 28.8077 0ZM16.2514 14.0625H14.2514V16.1458C14.2514 17.0052 13.5777 17.7083 12.7527 17.7083C11.9277 17.7083 11.2514 17.0052 11.2514 16.1458V14.0625L9.30769 14.0039C8.48269 14.0039 7.75144 13.3594 7.75144 12.5C7.75144 11.6406 8.42957 10.9368 9.25457 10.9368L11.2514 10.9375V8.85417C11.2514 7.99479 11.9277 7.29167 12.7527 7.29167C13.5777 7.29167 14.2514 7.99479 14.2514 8.85417V10.9375H16.2514C17.0764 10.9375 17.7527 11.6406 17.7527 12.5C17.7514 13.3594 17.1327 14.0625 16.2514 14.0625ZM27.7514 18.2292C26.3689 18.2292 25.3077 17.0658 25.3077 15.6836C25.3077 14.3014 26.4246 13.0794 27.7514 13.0794C29.0783 13.0794 30.1952 14.2435 30.1952 15.6836C30.1952 17.1237 29.1889 18.2292 27.7514 18.2292ZM31.7514 11.9792C30.3689 11.9792 29.3077 10.8158 29.3077 9.43359C29.3077 8.05143 30.4246 6.82943 31.7514 6.82943C33.1339 6.82943 34.1952 7.99349 34.1952 9.43359C34.1952 10.8737 33.1889 11.9792 31.7514 11.9792Z" fill="#02577A"/>
</svg>
